<?xml version="1.0" encoding="UTF-8" standalone="no"?>
<!DOCTYPE svg PUBLIC "-//W3C//DTD SVG 1.1//EN"
"http://www.w3.org/Graphics/SVG/1.1/DTD/svg11.dtd">


<!-- Page 1 -->
<svg x="0" y="0" width="580" height="144" viewBox="0 0 580 144" version="1.1" xmlns="http://www.w3.org/2000/svg" xmlns:xlink="http://www.w3.org/1999/xlink"
style="display: block;margin-left: auto;margin-right: auto;">
<defs>
<clipPath id="c_1"><path d="M0,0H580V144H0Z"/></clipPath>
<clipPath id="c0"><path d="M0,155.5V-20.1H580.6V155.5Z"/></clipPath>

<style type="text/css"><![CDATA[
text { white-space: pre; }
path, image { pointer-events: none; }
text::-moz-selection {
	color: transparent;
	background: rgba(0, 106, 173, 0.4);
}
text::selection {
	color: transparent;
	background: rgba(0, 106, 173, 0.4);
}

.s1{
font-size: 134.44px;
font-family: Lato-Semibold_a;
fill: TRANSPARENT;
}

.g0{
fill: #FFFFFF;
fill-opacity: 0;
}
.g1{
fill: #25768F;
}
.g2{
fill: none;
stroke: #000000;
stroke-width: 4.583;
stroke-linecap: butt;
stroke-linejoin: round;
}

]]></style>

</defs>
<g clip-path="url(#c_1)">
<path d="M0,0
L0,144
L580,144
L580,0 Z " 
fill="#FFFFFF" stroke="none"/>
<path fill-rule="evenodd" d="M0,155.5H580.6V-20.1H0V155.5Z" class="g0"/>
<path fill-rule="evenodd" d="M2.9,26.2C2.9,13.6,13.2,3.3,25.8,3.3H554.6c12.6,0,22.8,10.3,22.8,22.9v91.6c0,12.7,-10.2,22.9,-22.8,22.9H25.8C13.2,140.7,2.9,130.5,2.9,117.8Z" class="g1"/>
<path d="M2.9,26.2C2.9,13.6,13.2,3.3,25.8,3.3H554.6c12.6,0,22.8,10.3,22.8,22.9v91.6c0,12.7,-10.2,22.9,-22.8,22.9H25.8C13.2,140.7,2.9,130.5,2.9,117.8Z" class="g2"/>
<g clip-path="url(#c0)">
<g fill="#FFFFFF" >
<use xlink:href="#f0_3" transform="matrix(88,0,0,88,26.5,120.7)" />
<use xlink:href="#f0_4" transform="matrix(88,0,0,88,118.8,120.7)" />
<use xlink:href="#f0_6" transform="matrix(88,0,0,88,196.3,120.7)" />
<use xlink:href="#f0_5" transform="matrix(88,0,0,88,304.4,120.7)" />
<use xlink:href="#f0_9" transform="matrix(88,0,0,88,407.6,120.7)" />
<use xlink:href="#f0_8" transform="matrix(88,0,0,88,439.4,120.7)" />
<use xlink:href="#f0_7" transform="matrix(88,0,0,88,488.6,120.7)" />
</g>
</g>
<text x="26" y="120" dx="0,-.1,0,-.1,-.1,-.1,-.1,0" class="s1">AEON.to </text>

</g>
<defs>
<path d="M713,413L561,814c0,0,-18,47,-37,119c0,0,-8,-36,-18,-66c0,0,-10,-31,-19,-53L336,413ZM-1,0L434,1100H615L1051,0H913c0,0,-24,0,-38,12c0,0,-15,12,-22,29L761,284H287L196,41c0,0,-7,-15,-22,-28C174,13,159,0,136,0Z"
id="f0_3"
transform="scale(0.001,-0.001)"/>

<path d="M131,0V1100H817V956H310V624H715V484H310V144H817V0Z"
id="f0_4"
transform="scale(0.001,-0.001)"/>

<path d="M614,143c0,0,85,0,153,28c0,0,68,28,116,80c0,0,47,52,73,128c0,0,26,76,26,171c0,0,0,95,-26,170c0,0,-26,76,-73,129c0,0,-48,52,-116,81c0,0,-68,28,-153,28c0,0,-84,0,-152,-28c0,0,-68,-29,-116,-81c0,0,-48,-53,-74,-129c0,0,-26,-75,-26,-170c0,0,0,-95,26,-171c0,0,26,-76,74,-128c0,0,48,-52,116,-80c0,0,68,-28,152,-28Zm0,-153c0,0,-123,0,-224,41c0,0,-101,42,-174,116c0,0,-72,75,-112,178c0,0,-40,103,-40,225c0,0,0,122,40,225c0,0,40,103,112,178c0,0,73,75,174,117c0,0,101,42,224,42c0,0,124,0,225,-42c0,0,101,-42,174,-117c0,0,72,-75,111,-178c0,0,40,-103,40,-225c0,0,0,-122,-40,-225c0,0,-39,-103,-111,-178c0,0,-73,-74,-174,-116c0,0,-101,-41,-225,-41Z"
id="f0_6"
transform="scale(0.001,-0.001)"/>

<path d="M131,0V1100h93c0,0,11,0,19,-1c0,0,8,-1,15,-4c0,0,7,-3,13,-10c0,0,6,-6,13,-15L889,293c0,0,-2,24,-3,47c0,0,-1,23,-1,43v717h156V0H950c0,0,-20,0,-35,7c0,0,-14,8,-27,24L283,807c0,0,3,-22,4,-43c0,0,1,-22,1,-41V0Z"
id="f0_5"
transform="scale(0.001,-0.001)"/>

<path d="M180,-10c0,0,-22,0,-41,8c0,0,-20,7,-34,21c0,0,-14,15,-22,34c0,0,-8,19,-8,42c0,0,0,22,8,41c0,0,8,20,22,34c0,0,14,15,34,23c0,0,19,9,41,9c0,0,22,0,42,-9c0,0,19,-8,34,-23c0,0,14,-14,23,-34c0,0,8,-19,8,-41c0,0,0,-23,-8,-42c0,0,-9,-19,-23,-34C256,19,241,5,222,-2c0,0,-20,-8,-42,-8Z"
id="f0_9"
transform="scale(0.001,-0.001)"/>

<path d="M350,-11c0,0,-97,0,-149,53c0,0,-53,55,-53,154V650H63c0,0,-14,0,-24,9c0,0,-10,9,-10,26v67l126,18l36,225c0,0,4,13,13,21c0,0,9,8,24,8h84V768H529V650H312V208c0,0,0,-42,21,-64c0,0,21,-23,55,-23c0,0,19,0,33,5c0,0,14,5,24,11c0,0,10,6,17,11c0,0,7,5,14,5c0,0,14,0,22,-15L547,57C547,57,509,24,457,6c0,0,-52,-17,-107,-17Z"
id="f0_8"
transform="scale(0.001,-0.001)"/>

<path d="M437,117c0,0,105,0,157,71c0,0,51,70,51,202c0,0,0,131,-51,202c0,0,-52,72,-157,72c0,0,-107,0,-159,-72c0,0,-52,-71,-52,-202c0,0,0,-132,52,-202c0,0,52,-71,159,-71Zm0,-127c0,0,-87,0,-157,27c0,0,-70,28,-120,80c0,0,-49,53,-76,127c0,0,-27,74,-27,166c0,0,0,93,27,167c0,0,27,74,76,126c0,0,50,52,120,80c0,0,70,28,157,28c0,0,86,0,156,-28c0,0,70,-28,119,-80c0,0,50,-52,76,-126c0,0,27,-74,27,-167c0,0,0,-92,-27,-166c0,0,-26,-74,-76,-127C712,97,663,45,593,17c0,0,-70,-27,-156,-27Z"
id="f0_7"
transform="scale(0.001,-0.001)"/>


</defs>

<!-- Any embedded fonts defined here -->
<style type="text/css" ><![CDATA[

@font-face {
	font-family: Lato-Semibold_a;
	src: url("fonts/Lato-Semibold_a.woff") format("woff");
}

]]></style>

</svg>
